<svg xmlns="http://www.w3.org/2000/svg" width="91.799" height="34.444" viewBox="0 0 91.799 34.444">
  <g id="Group_3802" data-name="Group 3802" transform="translate(0 -0.48)">
    <g id="Group_3714" data-name="Group 3714" transform="translate(0 18.654)">
      <g id="Group_3713" data-name="Group 3713" transform="translate(0 0)">
        <g id="Group_5" data-name="Group 5">
          <g id="Group_1" data-name="Group 1">
            <path id="Path_1" data-name="Path 1" d="M154,523.717h-4.5V528.4h-3l0-15.9c2.5,0,5-.022,7.5-.021C161.771,512.473,161.791,523.719,154,523.717Zm-4.5-2.75H154a2.818,2.818,0,1,0,0-5.635h-4.5Z" transform="translate(-146.499 -512.471)" fill="#fff"/>
            <path id="Path_2" data-name="Path 2" d="M264.3,547.048h2.658l0,11.2h-2.613l-.136-1.636a4.257,4.257,0,0,1-3.636,1.976c-3.317.022-5.771-2.023-5.77-5.954a5.455,5.455,0,0,1,5.841-5.861,4.112,4.112,0,0,1,3.566,1.818Zm-6.727,5.588a3.209,3.209,0,0,0,3.317,3.409c4.362,0,4.364-6.793,0-6.793A3.19,3.19,0,0,0,257.571,552.636Z" transform="translate(-240.733 -542.319)" fill="#fff"/>
            <path id="Path_3" data-name="Path 3" d="M368.974,546.92l.2,1.295a3.3,3.3,0,0,1,3.158-1.59,4.249,4.249,0,0,1,2.885,1.069l-1.25,2.408a2.771,2.771,0,0,0-2-.727,2.585,2.585,0,0,0-2.8,2.839v5.907H366.4l0-11.2Z" transform="translate(-337.844 -542.189)" fill="#fff"/>
            <path id="Path_4" data-name="Path 4" d="M444.9,546.935l.2,1.295a3.3,3.3,0,0,1,3.159-1.59,4.251,4.251,0,0,1,2.885,1.069l-1.25,2.408a2.77,2.77,0,0,0-2-.727,2.584,2.584,0,0,0-2.8,2.839v5.908H442.33l0-11.2Z" transform="translate(-403.909 -542.202)" fill="#fff"/>
            <path id="Path_5" data-name="Path 5" d="M525.9,553.021a5.828,5.828,0,1,1-5.861-5.84A5.662,5.662,0,0,1,525.9,553.021Zm-8.884,0a3.054,3.054,0,1,0,6.089,0,3.163,3.163,0,0,0-3.044-3.318A3.078,3.078,0,0,0,517.015,553.02Z" transform="translate(-466.482 -542.673)" fill="#fff"/>
            <path id="Path_6" data-name="Path 6" d="M614.457,524.632v3.181h3.09V530.2h-3.113v4.84a1.391,1.391,0,0,0,1.454,1.591,3.171,3.171,0,0,0,1.34-.34l.772,2.363a6.186,6.186,0,0,1-2.3.477c-2.431.09-4.021-1.3-4.021-4.091V530.2h-2.09v-2.385h2.09v-2.886Z" transform="translate(-549.449 -523.052)" fill="#fff"/>
          </g>
          <g id="Group_2" data-name="Group 2" transform="translate(70.644 6.918)">
            <path id="Path_7" data-name="Path 7" d="M690.433,575.332l0-9.172h1.5l.1.892a2.57,2.57,0,0,1,2.1-1.036,3.236,3.236,0,0,1,3.319,3.386,3.157,3.157,0,0,1-3.268,3.385,2.607,2.607,0,0,1-2.152-.919v3.464Zm5.421-5.93a1.837,1.837,0,0,0-3.674,0,1.837,1.837,0,1,0,3.674,0Z" transform="translate(-690.433 -565.98)" fill="#fff"/>
            <path id="Path_8" data-name="Path 8" d="M758,569.5a3.366,3.366,0,1,1-3.385-3.373A3.27,3.27,0,0,1,758,569.5Zm-5.131,0a1.764,1.764,0,1,0,3.517,0,1.827,1.827,0,0,0-1.758-1.916A1.777,1.777,0,0,0,752.869,569.5Z" transform="translate(-743.367 -566.076)" fill="#fff"/>
            <path id="Path_9" data-name="Path 9" d="M813.437,567.639a2.18,2.18,0,0,0-1.6-.578c-.762,0-1.181.236-1.181.643s.38.656,1.207.709c1.22.079,2.769.355,2.769,2.074,0,1.141-.932,2.126-2.783,2.125a3.784,3.784,0,0,1-2.992-1.155l.787-1.141a3.553,3.553,0,0,0,2.231.906c.6.013,1.168-.3,1.168-.774,0-.447-.367-.63-1.286-.683-1.22-.092-2.677-.538-2.676-2.008,0-1.5,1.548-2.02,2.73-2.02a3.474,3.474,0,0,1,2.519.853Z" transform="translate(-793.477 -565.736)" fill="#fff"/>
          </g>
        </g>
      </g>
    </g>
    <g id="Group_3722" data-name="Group 3722" transform="translate(55.283 0.48)">
      <g id="Group_3" data-name="Group 3" transform="translate(0 0)">
        <path id="Path_10" data-name="Path 10" d="M593.083,469.381s.562,3.5,1.323,3.684c0,0-2.277,2.587-4.917.895Z" transform="translate(-585.729 -457.738)" fill="#fff"/>
        <path id="Path_11" data-name="Path 11" d="M562.1,454.143l-3.921,4.3-.215.236-.744.816-.323.355s-4.277-2.614-.729-7.559l.045.014,1.075.335Z" transform="translate(-554.764 -442.5)" fill="#fff"/>
        <path id="Path_12" data-name="Path 12" d="M608.73,430.784a1.384,1.384,0,0,0-.186.28.994.994,0,0,1,.6,1.859,1.387,1.387,0,1,0-.419-2.139Z" transform="translate(-602.721 -422.89)" fill="#fff"/>
        <path id="Path_13" data-name="Path 13" d="M647.906,389.925a5.346,5.346,0,0,1-2.11.442,7.106,7.106,0,0,0-2.28-.59c-.137-.012-.276-.022-.416-.027.138-.019.276-.04.414-.063,1.835-.3,3.639-.909,3.524-2.107C647.038,387.58,649.3,388.961,647.906,389.925Z" transform="translate(-633.536 -384.793)" fill="#fff"/>
        <path id="Path_14" data-name="Path 14" d="M629.221,394.111c-.138-.012-.276-.022-.416-.027a8.317,8.317,0,0,0-1.736.119,3.154,3.154,0,0,0,.5-1.763,8.016,8.016,0,0,1,.466,1.55,2.862,2.862,0,0,0,.138-.986,9.794,9.794,0,0,1,.333.968,7.909,7.909,0,0,0,.644-.762,6.41,6.41,0,0,1,.071.811C629.22,394.05,629.221,394.08,629.221,394.111Z" transform="translate(-619.241 -389.127)" fill="#fff"/>
        <path id="Path_15" data-name="Path 15" d="M757.945,386.515a9.971,9.971,0,0,1-1.284,2.922l-.948-.7-3.056,2.363a12.729,12.729,0,0,0,3.389-5.506,8.9,8.9,0,0,0-1.031-6.041l.762-1.033C758.1,382,758.392,384.692,757.945,386.515Z" transform="translate(-731.23 -376.712)" fill="#fff"/>
        <path id="Path_16" data-name="Path 16" d="M597.623,380.841a3.983,3.983,0,0,1-5.168,1.63,4.887,4.887,0,0,1-1.622-1.037,9.633,9.633,0,0,1-7.431-.024,10.713,10.713,0,0,1-3.728-2.436c-.213-.231-.428-.469-.617-.708a5.453,5.453,0,0,0,2.716-6.986,4.738,4.738,0,0,0-1.622-1.942,5.851,5.851,0,0,0-5.776-.4,6.119,6.119,0,0,0-2.757,2.486l-1.07-.338a8.313,8.313,0,0,1,2.773-2.88,11.405,11.405,0,0,1,1.095-.6c.181-.082.362-.156.535-.222.19-.075.378-.14.567-.2a7.74,7.74,0,0,1,1-.247c.049-.009.1-.018.145-.026a8.32,8.32,0,0,1,1.736-.119c.14.005.278.015.416.027a7.108,7.108,0,0,1,2.28.59,5.961,5.961,0,0,1,1.537.993c0,.009.008.009.008.016a4.226,4.226,0,0,1,1.333,2.756,5,5,0,0,1-.608,3.1,4.08,4.08,0,0,0,1.02-2.214,15.207,15.207,0,0,1,3.6-7.315l2.51-2.914a21.885,21.885,0,0,1,1.226,2.518c1.317,3.267,1.275,5.776.7,7.545a15.738,15.738,0,0,1-4.7,6.468l3.992-2.625,1.1.954Z" transform="translate(-568.841 -361.84)" fill="#fff"/>
      </g>
    </g>
  </g>
</svg>
