<svg width="244" height="171" viewBox="0 0 244 171" fill="none" xmlns="http://www.w3.org/2000/svg">
<g id="Group 943">
<circle id="Ellipse 148" cx="119.5" cy="66" r="59.5" fill="#B5F383"/>
<circle id="Ellipse 147" cx="128.5" cy="72" r="59.5" fill="url(#paint0_linear_68_675)"/>
<path id="Vector 146" d="M103 68.9721C105.214 60.7596 113.24 57.3998 117.114 68.9721" stroke="#55B547" stroke-width="5" stroke-linecap="round"/>
<path id="Vector 147" d="M137.871 68.9721C140.085 60.7596 148.111 57.3998 151.985 68.9721" stroke="#55B547" stroke-width="5" stroke-linecap="round"/>
<ellipse id="Ellipse 133" cx="126.82" cy="86.2607" rx="6.5" ry="4.5" fill="#55B547"/>
<path id="Ellipse 145" d="M124 137.5C88.6538 137.5 60 108.175 60 72C60 35.8253 88.6538 6.5 124 6.5C159.346 6.5 188 35.8253 188 72C188 81.8215 185.888 91.1381 182.103 99.5H151.5" stroke="#3AB54B" stroke-width="5" stroke-linecap="round"/>
<circle id="Ellipse 146" cx="151.5" cy="101" r="10.5" fill="#3AB54B"/>
<ellipse id="Ellipse 132" cx="124" cy="165" rx="59" ry="5.5" fill="#D1E1C3"/>
<g id="Group 937">
<circle id="Ellipse 134" cx="5" cy="138.5" r="5" fill="#E0FFC5"/>
<circle id="Ellipse 135" cx="229" cy="48.5" r="5" fill="#B5F383"/>
<circle id="Ellipse 139" cx="22" cy="93.5" r="5" fill="#B5F383"/>
<g id="Group 936">
<circle id="Ellipse 139_2" cx="45" cy="10.5" r="10" fill="#B5F383"/>
<circle id="Ellipse 140" cx="45" cy="10.5" r="7" fill="white"/>
</g>
<circle id="Ellipse 137" cx="32" cy="48.5" r="4.5" stroke="#B5F383" stroke-dasharray="2 2"/>
<circle id="Ellipse 140_2" cx="220" cy="98.5" r="4.5" stroke="#B5F383" stroke-dasharray="2 2"/>
<circle id="Ellipse 138" cx="188" cy="18.5" r="9.5" stroke="#B5F383" stroke-dasharray="2 2"/>
<circle id="Ellipse 136" cx="239" cy="138.5" r="5" fill="#E0FFC5"/>
</g>
</g>
<defs>
<linearGradient id="paint0_linear_68_675" x1="128.5" y1="12.5" x2="128.5" y2="131.5" gradientUnits="userSpaceOnUse">
<stop stop-color="#E0FFC5"/>
<stop offset="1" stop-color="white" stop-opacity="0"/>
</linearGradient>
</defs>
</svg>
