<svg xmlns="http://www.w3.org/2000/svg" xmlns:xlink="http://www.w3.org/1999/xlink" width="269.469" height="204.096" viewBox="0 0 269.469 204.096">
  <defs>
    <linearGradient id="linear-gradient" x1="0.218" y1="-0.04" x2="0.782" y2="1.04" gradientUnits="objectBoundingBox">
      <stop offset="0" stop-color="#1b75bb"/>
      <stop offset="0.006" stop-color="#1b75bb"/>
      <stop offset="1" stop-color="#e0e0e0"/>
    </linearGradient>
    <linearGradient id="linear-gradient-2" y1="0.499" x2="1" y2="0.499" gradientUnits="objectBoundingBox">
      <stop offset="0" stop-color="#51b748"/>
      <stop offset="1" stop-color="#8bc53f"/>
    </linearGradient>
    <linearGradient id="linear-gradient-3" x1="-0.001" y1="0.498" x2="1" y2="0.498" xlink:href="#linear-gradient-2"/>
    <linearGradient id="linear-gradient-4" x1="0" y1="0.501" x2="1" y2="0.501" xlink:href="#linear-gradient-2"/>
    <linearGradient id="linear-gradient-5" x1="0" y1="0.5" x2="0.999" y2="0.5" xlink:href="#linear-gradient-2"/>
    <linearGradient id="linear-gradient-6" x1="0.001" y1="0.5" x2="1.002" y2="0.5" xlink:href="#linear-gradient-2"/>
    <linearGradient id="linear-gradient-7" x1="-0.002" y1="0.501" x2="0.998" y2="0.501" xlink:href="#linear-gradient-2"/>
    <linearGradient id="linear-gradient-8" x1="0" y1="0.5" x2="1" y2="0.5" xlink:href="#linear-gradient-2"/>
    <linearGradient id="linear-gradient-9" y1="0.5" x2="1" y2="0.5" gradientUnits="objectBoundingBox">
      <stop offset="0" stop-color="#1b75bb"/>
      <stop offset="0.006" stop-color="#1b75bb"/>
      <stop offset="1" stop-color="#2b388f"/>
    </linearGradient>
    <linearGradient id="linear-gradient-10" x1="0" y1="0.5" x2="1" y2="0.5" xlink:href="#linear-gradient-9"/>
    <linearGradient id="linear-gradient-11" x1="0" y1="0.5" x2="1" y2="0.5" xlink:href="#linear-gradient-9"/>
    <linearGradient id="linear-gradient-12" x1="0" y1="0.5" x2="0.999" y2="0.5" xlink:href="#linear-gradient-9"/>
    <linearGradient id="linear-gradient-13" x1="0" y1="0.5" x2="1" y2="0.5" xlink:href="#linear-gradient-9"/>
    <linearGradient id="linear-gradient-14" x1="0.335" y1="0.285" x2="0.669" y2="0.718" xlink:href="#linear-gradient-2"/>
    <linearGradient id="linear-gradient-15" x1="0" y1="0.5" x2="1" y2="0.5" xlink:href="#linear-gradient-2"/>
    <linearGradient id="linear-gradient-16" x1="0" y1="0.499" x2="1" y2="0.499" xlink:href="#linear-gradient-2"/>
    <linearGradient id="linear-gradient-17" x1="0" y1="0.501" x2="1.003" y2="0.501" xlink:href="#linear-gradient-2"/>
    <linearGradient id="linear-gradient-18" x1="0" y1="0.499" x2="1" y2="0.499" xlink:href="#linear-gradient-2"/>
    <linearGradient id="linear-gradient-19" x1="0.998" y1="0.5" x2="-0.001" y2="0.5" gradientUnits="objectBoundingBox">
      <stop offset="0" stop-color="#2a3c92"/>
      <stop offset="1" stop-color="#2b388f"/>
    </linearGradient>
    <linearGradient id="linear-gradient-20" x1="0" y1="0.5" x2="1.002" y2="0.5" xlink:href="#linear-gradient-9"/>
  </defs>
  <g id="Group_10418" data-name="Group 10418" transform="translate(-45.266 -80.046)">
    <path id="Path_4511" data-name="Path 4511" d="M-1930.5-1735.588l15.077,15.077,31.8-31.8" transform="translate(2063.629 2000.41)" fill="none" stroke="#8abb2a" stroke-width="6"/>
    <g id="OTP_sent_artwork" data-name="OTP sent artwork" transform="translate(17.416 -12.395)">
      <g id="freepik--Floor--inject-2" transform="translate(27.85 147.402)" opacity="0.33">
        <path id="Path_5717" data-name="Path 5717" d="M65.973,299.117c50.831,26.568,133.2,26.568,184.033,0s50.831-69.574,0-96.141-133.2-26.568-184.033,0S15.142,272.549,65.973,299.117Z" transform="translate(-27.85 -183.05)" fill="url(#linear-gradient)"/>
      </g>
      <g id="freepik--Shadow--inject-2" transform="translate(178.992 222.336)">
        <path id="Path_5718" data-name="Path 5718" d="M285.987,311.751c-11.949,6.915-11.949,18.076,0,24.991s31.3,6.915,43.309,0,11.949-18.076,0-24.991S297.936,304.9,285.987,311.751Z" transform="translate(-277.025 -306.587)" fill="#ebebeb"/>
      </g>
      <path id="Path_5719" data-name="Path 5719" d="M84.3,145.548l32.027-9.948L91.7,152.705Z" transform="translate(-22.209 -16.98)" fill="url(#linear-gradient-2)"/>
      <path id="Path_5720" data-name="Path 5720" d="M109.953,134.7l-34.514,5.7-7.34-7.1Z" transform="translate(-15.836 -16.075)" fill="url(#linear-gradient-3)"/>
      <path id="Path_5721" data-name="Path 5721" d="M80.2,141.3v8.553l2.487-4.307,32.027-9.948Z" transform="translate(-20.596 -16.98)" fill="#233d47"/>
      <path id="Path_5722" data-name="Path 5722" d="M80.2,156.307l4.974-1.941L82.687,152Z" transform="translate(-20.596 -23.432)" fill="#5bca24"/>
      <path id="Path_5723" data-name="Path 5723" d="M84.3,152l2.487,2.366-.789.3Z" transform="translate(-22.209 -23.432)" fill="#455a64"/>
      <path id="Path_5724" data-name="Path 5724" d="M71.185,155.759a.469.469,0,0,1-.485-.425.458.458,0,0,1,.243-.425c.546-.3,1.092-.607,1.638-.849a.448.448,0,1,1,.425.789h-.061a13.028,13.028,0,0,0-1.577.849A.223.223,0,0,1,71.185,155.759Z" transform="translate(-16.858 -24.219)" fill="#233d47" opacity="0.28"/>
      <path id="Path_5725" data-name="Path 5725" d="M55.061,206.3c-.121,0-.182,0-.243-.061a20.109,20.109,0,0,1-2.79-2.3.437.437,0,1,1,.485-.728c.061,0,.061.061.121.121a23.917,23.917,0,0,0,2.73,2.184.47.47,0,0,1,.121.607.806.806,0,0,1-.425.182Zm-4.792-4.428a.524.524,0,0,1-.364-.182,19.99,19.99,0,0,1-2.062-2.972.448.448,0,1,1,.789-.425h0a30.177,30.177,0,0,0,2,2.851.48.48,0,0,1-.061.667A.455.455,0,0,1,50.269,201.875Zm-3.4-5.52a.511.511,0,0,1-.425-.243,32.546,32.546,0,0,1-1.274-3.4.472.472,0,0,1,.364-.546.461.461,0,0,1,.546.3c.364,1.092.728,2.184,1.213,3.275a.443.443,0,0,1-.243.607h-.182Zm-2-6.187a.406.406,0,0,1-.425-.364,23.1,23.1,0,0,1-.485-3.579.456.456,0,1,1,.91-.061,22.581,22.581,0,0,0,.485,3.457.472.472,0,0,1-.364.546h-.121Zm-.546-6.49h0a.415.415,0,0,1-.425-.425h0a34.291,34.291,0,0,1,.243-3.579.456.456,0,1,1,.91.061v.121a33.129,33.129,0,0,0-.243,3.518.578.578,0,0,1-.485.3Zm.728-6.43h-.121a.472.472,0,0,1-.364-.546,24.913,24.913,0,0,1,1.031-3.457.5.5,0,0,1,.607-.3h0a.5.5,0,0,1,.3.607h0a21.03,21.03,0,0,0-.971,3.336A.461.461,0,0,1,45.052,177.248Zm2.184-6.126a.223.223,0,0,1-.182-.061.5.5,0,0,1-.243-.607h0c.546-1.092,1.152-2.123,1.759-3.154a.437.437,0,0,1,.728.485,21.412,21.412,0,0,0-1.7,3.033A.384.384,0,0,1,47.236,171.122Zm3.457-5.459c-.121,0-.182-.061-.3-.121a.475.475,0,0,1-.061-.667h0a33.237,33.237,0,0,1,2.426-2.669.472.472,0,0,1,.667.667,31.663,31.663,0,0,0-2.366,2.608.367.367,0,0,1-.364.182Zm4.549-4.671a.524.524,0,0,1-.364-.182.48.48,0,0,1,.061-.667,26.029,26.029,0,0,1,2.912-2.184.47.47,0,0,1,.607.121.568.568,0,0,1-.121.667,30.771,30.771,0,0,0-2.79,2.123A.463.463,0,0,1,55.243,160.992Z" transform="translate(-6.315 -25.752)" fill="#233d47" opacity="0.28"/>
      <path id="Path_5726" data-name="Path 5726" d="M67.762,240.459a.223.223,0,0,1-.182-.061c-.546-.243-1.092-.546-1.638-.849a.42.42,0,0,1-.182-.607h0a.42.42,0,0,1,.607-.182c.546.3,1.092.546,1.638.789a.5.5,0,0,1,.243.607.619.619,0,0,1-.485.3Z" transform="translate(-14.891 -57.543)" fill="#233d47" opacity="0.28"/>
      <path id="Path_5727" data-name="Path 5727" d="M411.2,194.638,436.858,178.2l11.282,3.639Z" transform="translate(-150.821 -33.74)" fill="url(#linear-gradient-4)"/>
      <path id="Path_5728" data-name="Path 5728" d="M411.2,189.641l22.2-18.5-4.974-5.641Z" transform="translate(-150.821 -28.744)" fill="url(#linear-gradient-5)"/>
      <path id="Path_5729" data-name="Path 5729" d="M433.4,174.8v4.307L411.2,193.3Z" transform="translate(-150.821 -32.403)" fill="#233d47"/>
      <path id="Path_5730" data-name="Path 5730" d="M414.926,144.448a.463.463,0,0,1-.3-.121.544.544,0,0,1-.061-.667,19.326,19.326,0,0,0,2.123-2.851.448.448,0,1,1,.789.425h0a17.868,17.868,0,0,1-2.184,2.972A.438.438,0,0,1,414.926,144.448Zm3.457-5.641H418.2a.427.427,0,0,1-.243-.607h0a21.74,21.74,0,0,0,.971-3.4.464.464,0,1,1,.91.182h0a18.547,18.547,0,0,1-1.031,3.579A.511.511,0,0,1,418.383,138.807Zm1.334-6.551h0a.415.415,0,0,1-.425-.425h0v-.485a17.723,17.723,0,0,0-.243-3.094.464.464,0,0,1,.91-.182,19.13,19.13,0,0,1,.243,3.215v.485c-.061.3-.243.485-.485.485Zm-.91-6.551a.456.456,0,0,1-.425-.3,31.528,31.528,0,0,0-1.274-3.336.472.472,0,0,1,.182-.607h0a.443.443,0,0,1,.607.243,21.489,21.489,0,0,1,1.334,3.457.434.434,0,0,1-.3.546h-.121Zm-2.851-6.005a.333.333,0,0,1-.364-.243c-.667-.971-1.4-1.941-2.123-2.851a.48.48,0,0,1,.061-.667h0a.405.405,0,0,1,.607.061h0a27.239,27.239,0,0,1,2.244,2.972.47.47,0,0,1-.121.607c-.121.061-.182.121-.3.121Zm-4.246-5.1a.463.463,0,0,1-.3-.121c-.849-.789-1.82-1.577-2.73-2.3a.437.437,0,1,1,.485-.728h0a34.651,34.651,0,0,1,2.851,2.366.476.476,0,0,1,0,.667A.463.463,0,0,1,411.711,114.605Zm-5.338-4.064a.365.365,0,0,1-.243-.061l-1.274-.728c-.607-.364-1.213-.667-1.88-1.031a.462.462,0,0,1,.364-.849.059.059,0,0,1,.061.061c.607.3,1.274.667,1.88,1.031a15.343,15.343,0,0,1,1.334.789.47.47,0,0,1,.121.607A.519.519,0,0,1,406.373,110.541Zm-54.349-.3a.333.333,0,0,1-.364-.243.42.42,0,0,1,.182-.607,32.521,32.521,0,0,1,3.215-1.7.472.472,0,0,1,.607.182.443.443,0,0,1-.243.607c-1.092.546-2.123,1.092-3.154,1.7a.458.458,0,0,1-.243.061Zm48.465-2.79a.223.223,0,0,1-.182-.061c-1.092-.485-2.244-.91-3.336-1.334a.48.48,0,0,1,.3-.91c1.152.425,2.3.849,3.4,1.334a.522.522,0,0,1-.182.971Zm-42.521-.182a.456.456,0,0,1-.425-.3.443.443,0,0,1,.243-.607h0c1.152-.485,2.3-.91,3.4-1.334a.443.443,0,0,1,.607.243v.061a.5.5,0,0,1-.243.607h0a32.553,32.553,0,0,0-3.4,1.274c0,.061-.061.061-.182.061Zm36.273-2.062h-.121c-1.152-.364-2.3-.607-3.518-.91a.464.464,0,0,1,.182-.91c1.213.243,2.366.546,3.579.91a.434.434,0,0,1,.3.546.443.443,0,0,1-.425.364Zm-29.965-.121a.443.443,0,0,1-.425-.364.434.434,0,0,1,.3-.546h0c1.152-.3,2.366-.607,3.579-.849a.442.442,0,0,1,.243.849h-.061c-1.152.243-2.366.546-3.518.849Zm23.414-1.4h-.061a35.956,35.956,0,0,0-3.579-.425.456.456,0,0,1,.061-.91h.061c1.213.121,2.426.243,3.639.485a.472.472,0,0,1,.364.546.48.48,0,0,1-.485.3Zm-16.863,0a.406.406,0,0,1-.425-.364.472.472,0,0,1,.364-.546c1.213-.182,2.426-.364,3.639-.425a.456.456,0,1,1,.061.91c-1.213.121-2.426.243-3.579.425Zm10.251-.607h0q-1.82-.091-3.639,0a.515.515,0,0,1-.485-.425h0a.469.469,0,0,1,.425-.485h0q1.82-.091,3.639,0a.469.469,0,0,1,.425.485h0c.061.182-.121.364-.364.425Z" transform="translate(-127.373 -3.81)" fill="#233d47" opacity="0.28"/>
      <path id="Path_5731" data-name="Path 5731" d="M66.932,312.381c-.3.182-5.884,1.759-7.946-.971s1.334-6.976-.546-8.553-7.339,0-8.674-3.275,2.548-4.731.364-8.007c-1.4-2.123-5.217-3.275-5.035-5.216.243-2.851,5.52-3.639,10.069-.546s6.733.546,8.128.364,4.61.243,4.489,5.338S66.932,312.381,66.932,312.381Z" transform="translate(-6.783 -75.298)" fill="url(#linear-gradient-6)"/>
      <path id="Path_5732" data-name="Path 5732" d="M69.253,306c-.121,0-.3-.121-.3-.243-1.577-9.705-12.859-17.53-18.682-19.228a.254.254,0,0,1-.182-.364h0a.27.27,0,0,1,.364-.182c6.005,1.759,17.469,9.766,19.107,19.714,0,.121-.121.243-.3.3Z" transform="translate(-8.739 -76.137)" fill="#fff"/>
      <path id="Path_5733" data-name="Path 5733" d="M59.6,304.09a.287.287,0,0,1-.3-.3.315.315,0,0,1,.121-.243c.182-.121,4.489-2.669,8.8-1.456a.309.309,0,1,1-.121.607c-4-1.092-8.249,1.334-8.31,1.4Z" transform="translate(-12.373 -82.353)" fill="#fff"/>
      <path id="Path_5734" data-name="Path 5734" d="M340.611,225.892c2.366.3,6.43-1.031,6.733-5.035s1.941-5.035,4.974-5.7,3.882-1.7,4.246-3.579-1.941-4.185-1.274-7.036,2.79-2.851,4.913-6.066c1.334-2.062-1.4-5.217-6.066-3.882s-4.246,4.307-8.856,4.731S337.76,202.478,337.7,206,340.611,225.892,340.611,225.892Z" transform="translate(-121.904 -40.064)" fill="#5bca24"/>
      <path id="Path_5735" data-name="Path 5735" d="M340.611,225.892c2.366.3,6.43-1.031,6.733-5.035s1.941-5.035,4.974-5.7,3.882-1.7,4.246-3.579-1.941-4.185-1.274-7.036,2.79-2.851,4.913-6.066c1.334-2.062-1.4-5.217-6.066-3.882s-4.246,4.307-8.856,4.731S337.76,202.478,337.7,206,340.611,225.892,340.611,225.892Z" transform="translate(-121.904 -40.064)" fill="url(#linear-gradient-7)"/>
      <path id="Path_5736" data-name="Path 5736" d="M340.9,219.193h0a.384.384,0,0,1-.3-.364h0c2.244-11.04,14.436-21.109,17.348-22.14a.327.327,0,0,1,.243.607c-2.912,1.031-14.8,10.918-16.984,21.715C341.146,219.133,341.025,219.254,340.9,219.193Z" transform="translate(-123.045 -41.008)" fill="#fff"/>
      <path id="Path_5737" data-name="Path 5737" d="M76.9,195.217a3.57,3.57,0,0,1,1.577-2.73l80.613-46.524a3.6,3.6,0,0,1,3.154,0L164,147a3.57,3.57,0,0,1,1.577,2.73v61.809a3.57,3.57,0,0,1-1.577,2.73L83.39,260.788a3.6,3.6,0,0,1-3.154,0l-1.759-1.031a3.57,3.57,0,0,1-1.577-2.73Z" transform="translate(-19.298 -20.915)" fill="#5bca24"/>
      <path id="Path_5738" data-name="Path 5738" d="M76.9,195.217a3.57,3.57,0,0,1,1.577-2.73l80.613-46.524a3.6,3.6,0,0,1,3.154,0L164,147a3.57,3.57,0,0,1,1.577,2.73v61.809a3.57,3.57,0,0,1-1.577,2.73L83.39,260.788a3.6,3.6,0,0,1-3.154,0l-1.759-1.031a3.57,3.57,0,0,1-1.577-2.73Z" transform="translate(-19.298 -20.915)" opacity="0.3"/>
      <path id="Path_5739" data-name="Path 5739" d="M84.3,228.8l-6.915-4a3.681,3.681,0,0,0-.485,1.577v61.809a3.57,3.57,0,0,0,1.577,2.73l1.759,1.031a3.6,3.6,0,0,0,3.154,0l.91-.485Z" transform="translate(-19.298 -52.074)" fill="#5bca24"/>
      <path id="Path_5740" data-name="Path 5740" d="M84.3,228.8l-6.915-4a3.681,3.681,0,0,0-.485,1.577v61.809a3.57,3.57,0,0,0,1.577,2.73l1.759,1.031a3.6,3.6,0,0,0,3.154,0l.91-.485Z" transform="translate(-19.298 -52.074)" opacity="0.5"/>
      <path id="Path_5741" data-name="Path 5741" d="M168.76,151.807v61.809a3.007,3.007,0,0,1-.485,1.577,3.713,3.713,0,0,1-.91,1.031l-.061.061-.121.061L86.57,262.87h0a1.161,1.161,0,0,1-1.092.121,1.024,1.024,0,0,1-.485-1.031V200.151a1.4,1.4,0,0,1,1.274-1.456,1.335,1.335,0,0,1,.485.061l33.907,8.067,4.428,1.031a2.871,2.871,0,0,0,2.851-1.092l5.156-7.158,34.635-48.222C168.275,150.594,168.76,150.776,168.76,151.807Z" transform="translate(-22.477 -22.997)" fill="#5bca24"/>
      <path id="Path_5742" data-name="Path 5742" d="M168.76,151.807v61.809a3.007,3.007,0,0,1-.485,1.577,3.713,3.713,0,0,1-.91,1.031l-.061.061-.121.061L86.57,262.87h0a1.161,1.161,0,0,1-1.092.121,1.024,1.024,0,0,1-.485-1.031V200.151a1.4,1.4,0,0,1,1.274-1.456,1.335,1.335,0,0,1,.485.061l33.907,8.067,4.428,1.031a2.871,2.871,0,0,0,2.851-1.092l5.156-7.158,34.635-48.222C168.275,150.594,168.76,150.776,168.76,151.807Z" transform="translate(-22.477 -22.997)" opacity="0.2"/>
      <path id="Path_5743" data-name="Path 5743" d="M198.389,247.881l.121-.061.061-.061a3.714,3.714,0,0,0,.91-1.031,3.006,3.006,0,0,0,.485-1.577L164.3,231.2l23.9,22.564Z" transform="translate(-53.684 -54.592)" fill="#5bca24"/>
      <path id="Path_5744" data-name="Path 5744" d="M198.389,247.881l.121-.061.061-.061a3.714,3.714,0,0,0,.91-1.031,3.006,3.006,0,0,0,.485-1.577L164.3,231.2l23.9,22.564Z" transform="translate(-53.684 -54.592)" opacity="0.6"/>
      <path id="Path_5745" data-name="Path 5745" d="M84.993,298.2a1.024,1.024,0,0,0,.485,1.031,1.161,1.161,0,0,0,1.092-.121h0l27.781-16.074L120.659,243,84.993,297.167Z" transform="translate(-22.477 -59.235)" fill="#5bca24"/>
      <path id="Path_5746" data-name="Path 5746" d="M84.993,298.2a1.024,1.024,0,0,0,.485,1.031,1.161,1.161,0,0,0,1.092-.121h0l27.781-16.074L120.659,243,84.993,297.167Z" transform="translate(-22.477 -59.235)" opacity="0.6"/>
      <path id="Path_5747" data-name="Path 5747" d="M168.6,246.1a3.713,3.713,0,0,1-.91,1.031l-.061.061L86.892,293.774h0a1.161,1.161,0,0,1-1.092.121l38.639-61.628a6.06,6.06,0,0,1,7.582-2.3Z" transform="translate(-22.799 -53.901)" fill="#5bca24"/>
      <path id="Path_5748" data-name="Path 5748" d="M168.6,246.1a3.713,3.713,0,0,1-.91,1.031l-.061.061L86.892,293.774h0a1.161,1.161,0,0,1-1.092.121l38.639-61.628a6.06,6.06,0,0,1,7.582-2.3Z" transform="translate(-22.799 -53.901)" opacity="0.2"/>
      <path id="Path_5749" data-name="Path 5749" d="M85,197.783l37.061,16.377a6,6,0,0,0,7.582-2.366L168.585,149.5Z" transform="translate(-22.485 -22.449)" fill="#5bca24"/>
      <path id="Path_5750" data-name="Path 5750" d="M85,197.783l37.061,16.377a6,6,0,0,0,7.582-2.366L168.585,149.5Z" transform="translate(-22.485 -22.449)" opacity="0.6"/>
      <path id="Path_5751" data-name="Path 5751" d="M85,197.783l37.365,13.951a6.137,6.137,0,0,0,7.218-2.366L168.646,149.5Z" transform="translate(-22.485 -22.449)" fill="#5bca24"/>
      <path id="Path_5752" data-name="Path 5752" d="M85,197.783l37.365,13.951a6.137,6.137,0,0,0,7.218-2.366L168.646,149.5Z" transform="translate(-22.485 -22.449)" fill="url(#linear-gradient-8)"/>
      <path id="Path_5753" data-name="Path 5753" d="M221.089,260.481l.121-.061.061-.061a3.713,3.713,0,0,0,.91-1.031,3.007,3.007,0,0,0,.485-1.577L187,243.8l23.9,22.564Z" transform="translate(-62.614 -59.549)" fill="#263238"/>
      <g id="Group_9795" data-name="Group 9795" transform="translate(72.948 129.781)" opacity="0.9">
        <path id="Path_5754" data-name="Path 5754" d="M102.3,203.917a3.57,3.57,0,0,1,1.577-2.73l80.613-46.524a3.6,3.6,0,0,1,3.154,0L189.4,155.7a3.57,3.57,0,0,1,1.577,2.73v61.809a3.57,3.57,0,0,1-1.577,2.73L108.79,269.488a3.6,3.6,0,0,1-3.154,0l-1.759-1.031a3.57,3.57,0,0,1-1.577-2.73Z" transform="translate(-102.239 -154.118)" fill="#455a64"/>
        <path id="Path_5755" data-name="Path 5755" d="M102.3,203.617a3.57,3.57,0,0,1,1.577-2.73l80.613-46.524a3.6,3.6,0,0,1,3.154,0L189.4,155.4a3.57,3.57,0,0,1,1.577,2.73v61.809a3.57,3.57,0,0,1-1.577,2.73L108.79,269.188a3.6,3.6,0,0,1-3.154,0l-1.759-1.031a3.57,3.57,0,0,1-1.577-2.73Z" transform="translate(-102.239 -154)" fill="url(#linear-gradient-9)"/>
        <path id="Path_5756" data-name="Path 5756" d="M109.6,237.3l-6.915-4a3.681,3.681,0,0,0-.485,1.577v61.809a3.57,3.57,0,0,0,1.577,2.73l1.759,1.031a3.6,3.6,0,0,0,3.154,0l.91-.546Z" transform="translate(-102.2 -185.199)" fill="#233d47"/>
        <path id="Path_5757" data-name="Path 5757" d="M194.16,160.224v61.809a3.007,3.007,0,0,1-.485,1.577,3.713,3.713,0,0,1-.91,1.031l-.061.061-.121.061L111.97,271.287h0a1.161,1.161,0,0,1-1.092.121,1.024,1.024,0,0,1-.485-1.031V208.568a1.4,1.4,0,0,1,1.274-1.456,1.335,1.335,0,0,1,.485.061l33.907,8.067,4.428,1.031a2.871,2.871,0,0,0,2.851-1.092l5.156-7.158L193.129,159.8C193.675,159.072,194.16,159.193,194.16,160.224Z" transform="translate(-105.419 -156.099)" fill="url(#linear-gradient-10)"/>
        <path id="Path_5758" data-name="Path 5758" d="M110.393,306.637a1.024,1.024,0,0,0,.485,1.031,1.161,1.161,0,0,0,1.092-.121h0l27.781-16.013L146.12,251.5l-35.666,54.106Z" transform="translate(-105.419 -192.359)" fill="#263238"/>
        <path id="Path_5759" data-name="Path 5759" d="M194,254.481a3.713,3.713,0,0,1-.91,1.031l-.061.061-80.734,46.585h0a1.161,1.161,0,0,1-1.092.121l38.578-61.627a5.993,5.993,0,0,1,7.582-2.3Z" transform="translate(-105.741 -186.969)" fill="url(#linear-gradient-11)"/>
        <path id="Path_5760" data-name="Path 5760" d="M110.4,206.144l37.061,16.377a6.017,6.017,0,0,0,7.582-2.366L193.985,157.8Z" transform="translate(-105.426 -155.495)" fill="#263238"/>
        <path id="Path_5761" data-name="Path 5761" d="M110.4,206.183l37.365,13.951a6.137,6.137,0,0,0,7.218-2.366L194.046,157.9Z" transform="translate(-105.426 -155.534)" fill="url(#linear-gradient-12)"/>
      </g>
      <path id="Path_5762" data-name="Path 5762" d="M197.1,242.21V180.4a6.4,6.4,0,0,1,1.092-3.275l38.457-53.56a6.1,6.1,0,0,1,6.308-2.366l36.152,8.613a13.236,13.236,0,0,1,3.336,1.334l1.759,1.031a3.57,3.57,0,0,1,1.577,2.73v61.809a3.57,3.57,0,0,1-1.577,2.73L203.59,245.97a3.6,3.6,0,0,1-3.154,0l-1.759-1.031A3.407,3.407,0,0,1,197.1,242.21Z" transform="translate(-66.588 -11.253)" fill="#5bca24"/>
      <path id="Path_5763" data-name="Path 5763" d="M197.1,242.21V180.4a6.4,6.4,0,0,1,1.092-3.275l38.457-53.56a6.1,6.1,0,0,1,6.308-2.366l36.152,8.613a13.236,13.236,0,0,1,3.336,1.334l1.759,1.031a3.57,3.57,0,0,1,1.577,2.73v61.809a3.57,3.57,0,0,1-1.577,2.73L203.59,245.97a3.6,3.6,0,0,1-3.154,0l-1.759-1.031A3.407,3.407,0,0,1,197.1,242.21Z" transform="translate(-66.588 -11.253)" fill="#fff" opacity="0.3"/>
      <path id="Path_5764" data-name="Path 5764" d="M209.2,139.465v78.854a.972.972,0,0,0,1.577.91l75.7-43.673a3.57,3.57,0,0,0,1.577-2.73V93.972c0-1.031-.728-1.4-1.577-.91l-75.7,43.673A3.57,3.57,0,0,0,209.2,139.465Z" transform="translate(-71.349 -0.161)" opacity="0.64" fill="url(#linear-gradient-13)"/>
      <path id="Path_5765" data-name="Path 5765" d="M209.947,219.614a1.771,1.771,0,0,1-.546-.121,1.381,1.381,0,0,1-.607-1.274V139.364a3.69,3.69,0,0,1,1.759-2.972l75.7-43.673a1.249,1.249,0,0,1,1.759.182,1.186,1.186,0,0,1,.243.971v78.854A3.78,3.78,0,0,1,286.5,175.7l-75.7,43.673A3.478,3.478,0,0,1,209.947,219.614Zm77.1-126.652a.978.978,0,0,0-.546.182l-75.7,43.673a3.333,3.333,0,0,0-1.456,2.487v78.854a.69.69,0,0,0,.485.849.549.549,0,0,0,.607-.182l75.7-43.673a3.333,3.333,0,0,0,1.456-2.487V93.811a.7.7,0,0,0-.3-.728C287.224,92.962,287.163,92.962,287.042,92.962Z" transform="translate(-71.185)" fill="#e0e0e0"/>
      <path id="Path_5766" data-name="Path 5766" d="M202.862,219.354,197.4,216.2a5.2,5.2,0,0,0-.3,1.638v61.809a3.57,3.57,0,0,0,1.577,2.73l1.759,1.031a3.6,3.6,0,0,0,3.154,0l.728-.425Z" transform="translate(-66.588 -48.691)" fill="#5bca24"/>
      <g id="Group_9796" data-name="Group 9796" transform="translate(130.512 167.509)" opacity="0.1">
        <path id="Path_5767" data-name="Path 5767" d="M202.862,219.354,197.4,216.2a5.2,5.2,0,0,0-.3,1.638v61.809a3.57,3.57,0,0,0,1.577,2.73l1.759,1.031a3.6,3.6,0,0,0,3.154,0l.728-.425Z" transform="translate(-197.1 -216.2)"/>
      </g>
      <path id="Path_5768" data-name="Path 5768" d="M288.96,143.324v61.809a3.006,3.006,0,0,1-.485,1.577,3.714,3.714,0,0,1-.91,1.031l-.061.061-.121.061L206.77,254.387h0a1.161,1.161,0,0,1-1.092.121,1.024,1.024,0,0,1-.485-1.031V191.668a1.4,1.4,0,0,1,1.274-1.456,1.336,1.336,0,0,1,.485.061l33.907,8.067,4.428,1.031a2.872,2.872,0,0,0,2.851-1.092l5.156-7.158L287.929,142.9C288.475,142.172,288.96,142.293,288.96,143.324Z" transform="translate(-69.767 -19.67)" fill="#5bca24"/>
      <path id="Path_5769" data-name="Path 5769" d="M288.96,143.324v61.809a3.006,3.006,0,0,1-.485,1.577,3.714,3.714,0,0,1-.91,1.031l-.061.061-.121.061L206.77,254.387h0a1.161,1.161,0,0,1-1.092.121,1.024,1.024,0,0,1-.485-1.031V191.668a1.4,1.4,0,0,1,1.274-1.456,1.336,1.336,0,0,1,.485.061l33.907,8.067,4.428,1.031a2.872,2.872,0,0,0,2.851-1.092l5.156-7.158L287.929,142.9C288.475,142.172,288.96,142.293,288.96,143.324Z" transform="translate(-69.767 -19.67)" fill="url(#linear-gradient-14)"/>
      <path id="Path_5770" data-name="Path 5770" d="M318.589,239.481l.121-.061.061-.061a3.713,3.713,0,0,0,.91-1.031,3.006,3.006,0,0,0,.485-1.577L284.5,222.8l23.9,22.564Z" transform="translate(-100.974 -51.287)" fill="#5bca24"/>
      <path id="Path_5771" data-name="Path 5771" d="M205.193,289.737a1.024,1.024,0,0,0,.485,1.031,1.161,1.161,0,0,0,1.092-.121h0l27.781-16.013,6.308-40.034-35.666,54.106Z" transform="translate(-69.767 -55.93)" fill="#5bca24"/>
      <path id="Path_5772" data-name="Path 5772" d="M288.8,237.6a3.713,3.713,0,0,1-.91,1.031l-.061.061-80.734,46.585h0A1.161,1.161,0,0,1,206,285.4l38.578-61.628a6.06,6.06,0,0,1,7.582-2.3Z" transform="translate(-70.09 -50.557)" fill="#5bca24"/>
      <path id="Path_5773" data-name="Path 5773" d="M288.8,237.6a3.713,3.713,0,0,1-.91,1.031l-.061.061-80.734,46.585h0A1.161,1.161,0,0,1,206,285.4l38.578-61.628a6.06,6.06,0,0,1,7.582-2.3Z" transform="translate(-70.09 -50.557)" stroke="#82db82" stroke-miterlimit="10" stroke-width="1" fill="url(#linear-gradient-15)"/>
      <path id="Path_5774" data-name="Path 5774" d="M325.834,353.234h0l.121-.121c.061-.061.182-.121.243-.243l.3-.243.3-.243a3.661,3.661,0,0,0,.485-.485l2.184,1.638,1.456,1.092h0a5.992,5.992,0,0,0-1.274,1.941s-.425.667-1.88.364C325.834,356.449,325.531,353.78,325.834,353.234Z" transform="translate(-117.196 -102.079)" fill="#ffa8a7"/>
      <path id="Path_5775" data-name="Path 5775" d="M290.533,336.37c-1.638-1.941-.182-5.1,1.4-9.22,1.759-4.549,4.489-12.253,4.489-12.253l19.289-4s20.563-.364,22.443,3.518c1.516,3.154-12.01,7.885-13.951,8.067l-11.889.607-1.274.607-8.371,10.554Z" transform="translate(-103.064 -85.943)" fill="url(#linear-gradient-16)"/>
      <path id="Path_5776" data-name="Path 5776" d="M341.063,319.46a45.3,45.3,0,0,0-4.185,4.853c-3.457,4.853-8.977,13.648-8.977,13.648s.849,2.79,3.457,2.669c0,0,18.076-16.863,19.532-18.44,2.244-2.366,4-6.248.182-6.612S342.579,317.822,341.063,319.46Z" transform="translate(-118.049 -87.775)" fill="url(#linear-gradient-17)"/>
      <path id="Path_5777" data-name="Path 5777" d="M341.42,325.872s3.215-4.731,6.551-6.672c0,0-3.336.667-8.371,6.794Z" transform="translate(-122.652 -89.214)" fill="#5bca24"/>
      <path id="Path_5778" data-name="Path 5778" d="M341.42,325.872s3.215-4.731,6.551-6.672c0,0-3.336.667-8.371,6.794Z" transform="translate(-122.652 -89.214)" opacity="0.1"/>
      <path id="Path_5779" data-name="Path 5779" d="M345.374,339.882l-1.274.243,1.152,4.367a9.907,9.907,0,0,1,1.516-.061,7.566,7.566,0,0,0,1.638-.607l-.3-2.669-1.4-1.456Z" transform="translate(-124.422 -97.279)" fill="#ffa8a7"/>
      <path id="Path_5780" data-name="Path 5780" d="M356.248,340.127a4.733,4.733,0,0,1,2.669,2.73c.243.667.485,1.274.667,1.941.182.728.121,1.88-.789,2.123a1.334,1.334,0,0,1-.849-.121c-1.82-.667-3.518-1.516-5.4-2.062a19.366,19.366,0,0,0-4.853-1.092,3.375,3.375,0,0,0-.121-3.882,2.5,2.5,0,0,0-1.274-.607,9.368,9.368,0,0,0,1.334-.728,3.683,3.683,0,0,1,2.851-.667,6.8,6.8,0,0,1,2,1.213C353.64,339.7,354.853,339.642,356.248,340.127Z" transform="translate(-125.288 -96.493)" fill="#263238"/>
      <path id="Path_5781" data-name="Path 5781" d="M293.256,343.8c1.577-.485,4.125-.91,11.707-1.334s17.894-2.062,17.894-2.062a5.018,5.018,0,0,1,1.152,4.367s-13.405,4.246-17.772,4.792c-6.976.91-9.341.849-12.5.182C290.163,348.953,287.979,345.435,293.256,343.8Z" transform="translate(-103.179 -97.555)" fill="url(#linear-gradient-18)"/>
      <path id="Path_5782" data-name="Path 5782" d="M336.787,286.6l5.7,13.587-4.064,2.487L330.6,289.451Z" transform="translate(-119.111 -76.388)" fill="#f28f8f"/>
      <path id="Path_5783" data-name="Path 5783" d="M321.5,265.6c3.094.061,6.551,1.152,7.7,3.579l4.853,10.008s-2.73,4-7.1,3.7Z" transform="translate(-115.531 -68.126)" fill="url(#linear-gradient-19)"/>
      <path id="Path_5784" data-name="Path 5784" d="M287.28,296.484c.061-.546.789-3.094,1.577-5.884l5.884,2.062-1.577,4.974-4.913,4.731A8.007,8.007,0,0,1,287.28,296.484Z" transform="translate(-101.995 -77.962)" fill="#ffa8a7"/>
      <path id="Path_5785" data-name="Path 5785" d="M302.069,265.782c-3.7.91-8.735,2.062-10.19,6.066s-3.579,11.1-3.579,11.1c.789,1.4,5.277,2.548,6.794,1.759l.728-2.426v14.74c2.912,3.154,17.166,2.366,19.289-4V272.939c0-3.215-1.759-7.1-6.733-7.34Z" transform="translate(-102.469 -68.126)" fill="url(#linear-gradient-20)"/>
      <path id="Path_5786" data-name="Path 5786" d="M300.7,289.323l1.88-5.823-1.88,8.431Z" transform="translate(-107.347 -75.169)" fill="#e0e0e0"/>
      <path id="Path_5787" data-name="Path 5787" d="M307.179,238.793a2.239,2.239,0,0,0-1.82.607c-.789.789-.607,2.3,0,5.7l2.426.243Z" transform="translate(-108.974 -57.575)" fill="#263238"/>
      <path id="Path_5788" data-name="Path 5788" d="M331,236.83a4.223,4.223,0,0,0,1.516-.3c.728-.425.91.425.546,1.152a3.425,3.425,0,0,1-2.79,1.88c0-.121-.667-1.88-.667-1.88Z" transform="translate(-118.718 -56.643)" fill="#263238"/>
      <path id="Path_5789" data-name="Path 5789" d="M307.825,243.544c-.364.243-.849-.485-1.334-.97a1.486,1.486,0,0,0-2.184-.121,3.336,3.336,0,0,0-.425.546c-.728,1.577.91,3.579,1.88,4.307a1.742,1.742,0,0,0,2,.182l.243,5.944a6.342,6.342,0,0,0,4.731,3.639c3.457.485,2.73-2.426,1.638-3.821v-2.184a7.839,7.839,0,0,0,2.669.121,7.46,7.46,0,0,0,2.244-2.912,13.1,13.1,0,0,0,.91-9.462c-1.274-5.277-6.915-5.459-10.312-3.336S307.825,243.544,307.825,243.544Z" transform="translate(-108.528 -55.776)" fill="#ffa8a7"/>
      <path id="Path_5790" data-name="Path 5790" d="M309.486,241.727c-.182,0-.849-1.152-1.334-1.516-.607-.546.182-5.641.182-5.641a3.527,3.527,0,0,1,.607-3.215c1.213-1.274,3.579-1.092,5.338-1.152a15.478,15.478,0,0,0,6.187-1.274c2.487-1.092,2.669-1.213,2.972-.121a6.042,6.042,0,0,1-1.031,5.216l-.789,1.274a6.459,6.459,0,0,1-3.033.91c-2.3.3-6.187-.971-6.672-1.031-.667-.061-.789.546-1.152,2.3C310.4,239.118,310.092,241.727,309.486,241.727Z" transform="translate(-110.189 -53.351)" fill="#263238"/>
      <path id="Path_5791" data-name="Path 5791" d="M307.284,238.214l-2.184-1.152a1.216,1.216,0,0,1,1.638-.546h0A1.3,1.3,0,0,1,307.284,238.214Z" transform="translate(-109.078 -56.632)" fill="#263238"/>
      <path id="Path_5792" data-name="Path 5792" d="M317.684,260.23a27.959,27.959,0,0,1-4.307-1.213A4.214,4.214,0,0,1,311.8,257.5a5.137,5.137,0,0,0,.91,1.82c.849,1.031,4.974,1.82,4.974,1.82Z" transform="translate(-111.714 -64.939)" fill="#f28f8f"/>
      <path id="Path_5793" data-name="Path 5793" d="M320.774,248.967a.638.638,0,1,1-.607-.667.661.661,0,0,1,.607.667Z" transform="translate(-114.744 -61.32)" fill="#263238"/>
      <path id="Path_5794" data-name="Path 5794" d="M319.541,245.118l-1.4.728a.788.788,0,1,1,1.4-.728Z" transform="translate(-114.178 -59.896)" fill="#263238"/>
      <path id="Path_5795" data-name="Path 5795" d="M320.976,256.5l1.456.546a.746.746,0,0,1-.971.485h0A.811.811,0,0,1,320.976,256.5Z" transform="translate(-115.31 -64.546)" fill="#f28f8f"/>
      <path id="Path_5796" data-name="Path 5796" d="M330.274,245.458,329,244.488a.776.776,0,0,1,1.092-.182h0A.859.859,0,0,1,330.274,245.458Z" transform="translate(-118.481 -59.691)" fill="#263238"/>
      <path id="Path_5797" data-name="Path 5797" d="M329.674,248.667a.638.638,0,1,1-.607-.667.713.713,0,0,1,.607.667Z" transform="translate(-118.245 -61.202)" fill="#263238"/>
      <path id="Path_5798" data-name="Path 5798" d="M325.107,249l-.607,3.821,2.123-.243Z" transform="translate(-116.711 -61.595)" fill="#f28f8f"/>
      <path id="Path_5799" data-name="Path 5799" d="M338.1,315.862l-13.041-7.521a.771.771,0,0,0-.728,0L301.4,321.564l13.466,7.764Z" transform="translate(-107.623 -84.906)" fill="#37474f"/>
      <path id="Path_5800" data-name="Path 5800" d="M318.736,330.753l-7.036-4.064L332.323,314.8l7.1,4.064Z" transform="translate(-111.675 -87.483)" fill="#263238"/>
      <path id="Path_5801" data-name="Path 5801" d="M317.6,320.139l.121.061,3.457,2,6.126-3.579.182-.061-3.579-2.062Z" transform="translate(-113.996 -88.152)" fill="#263238"/>
      <path id="Path_5802" data-name="Path 5802" d="M317.8,320.318l3.457,2,6.126-3.579-3.4-1.941Z" transform="translate(-114.075 -88.27)" fill="#263238"/>
      <path id="Path_5803" data-name="Path 5803" d="M301.4,326.5v.3a1.355,1.355,0,0,0,.607,1.092l12.192,7.036a1.2,1.2,0,0,0,1.274,0L337.491,322.2a1.355,1.355,0,0,0,.607-1.092v-.3l-23.292,13.466Z" transform="translate(-107.623 -89.843)" fill="#263238"/>
      <path id="Path_5804" data-name="Path 5804" d="M323.5,334.266v.849a1.025,1.025,0,0,0,.607-.182L346.125,322.2a1.355,1.355,0,0,0,.607-1.092v-.3Z" transform="translate(-116.318 -89.843)" fill="#263238"/>
      <path id="Path_5805" data-name="Path 5805" d="M324.1,324.179a1.354,1.354,0,0,0,1.274-.121l21.958-12.677a1.572,1.572,0,0,0,.728-1.031l2.426-14.315v-.243a1.744,1.744,0,0,0-.425-1.092l-22.807,13.163a1.068,1.068,0,0,0-.546.789Z" transform="translate(-116.554 -79.575)" fill="#263238"/>
      <path id="Path_5806" data-name="Path 5806" d="M323.5,323.84l.121.061c.061.061.121.061.182.121l2.608-15.528a1.191,1.191,0,0,1,.546-.789l22.807-13.163c-.121-.061-.182-.182-.3-.243l-22.868,13.163a1.068,1.068,0,0,0-.546.789Z" transform="translate(-116.318 -79.418)" fill="#455a64"/>
      <path id="Path_5807" data-name="Path 5807" d="M344.482,319.446a4.951,4.951,0,0,1,2.184-2.851c1.092-.607,1.82-.3,1.638.607a4.951,4.951,0,0,1-2.184,2.851C345.028,320.659,344.3,320.356,344.482,319.446Z" transform="translate(-124.562 -88.065)" fill="#37474f"/>
      <path id="Path_5808" data-name="Path 5808" d="M293.974,301.008s3.943,15.164,5.58,16.256,4.731,1.88,6.248,2.426,2.123,1.274,1.88,1.516a30.219,30.219,0,0,1-3.154.667c-.789.243.243,1.456,1.88,2.73s3.033,1.152,2.851,2-3.821,1.7-6.915-.121-4-4.246-5.823-6.308S290.456,309.5,289,305.739c0,0,.121-6.976,2.426-6.551S293.974,301.008,293.974,301.008Z" transform="translate(-102.744 -81.333)" fill="#ffa8a7"/>
      <path id="Path_5809" data-name="Path 5809" d="M328.1,351.287a3.572,3.572,0,0,0,3.4,2.426l5.277-4.913Z" transform="translate(-118.127 -100.859)" fill="#5bca24"/>
      <path id="Path_5810" data-name="Path 5810" d="M328.1,351.287a3.572,3.572,0,0,0,3.4,2.426l5.277-4.913Z" transform="translate(-118.127 -100.859)" opacity="0.1"/>
      <path id="Path_5811" data-name="Path 5811" d="M333.3,357.8v0Z" transform="translate(-120.173 -104.4)" fill="#263238"/>
      <path id="Path_5812" data-name="Path 5812" d="M327.183,362.046a11.32,11.32,0,0,1,.789-4.671h0a2.017,2.017,0,0,1-1.759.243,3.319,3.319,0,0,1-1.941-3.518h0c-.243.243-.546.425-.789.667a3.916,3.916,0,0,0-1.7,2.426,6.192,6.192,0,0,0,.425,2.3c.364,1.456,0,2.972-.061,4.489a4.743,4.743,0,0,0,1.577,3.457,16.651,16.651,0,0,0,1.577,1.334,1.522,1.522,0,0,0,2.123.121,1.319,1.319,0,0,0,.485-1.213C327.729,365.685,327.3,363.987,327.183,362.046Z" transform="translate(-115.633 -102.945)" fill="#263238"/>
      <path id="Path_5813" data-name="Path 5813" d="M333.725,356.4a6.125,6.125,0,0,0-.425.91C333.421,357.007,333.6,356.7,333.725,356.4Z" transform="translate(-120.173 -103.85)" fill="#37474f"/>
      <path id="Path_5814" data-name="Path 5814" d="M325.9,354.021h0l.121-.121Z" transform="translate(-117.262 -102.866)" fill="#37474f"/>
      <g id="freepik--Mailbox--inject-2" transform="translate(239.31 164.564)" opacity="0.9">
        <path id="Path_5815" data-name="Path 5815" d="M412.874,297.108v-.971h-.243a3.465,3.465,0,0,0-1.577-1.516,9.638,9.638,0,0,0-8.735,0,4.214,4.214,0,0,0-1.577,1.516H400.5v.971a3.071,3.071,0,0,0,1.82,2.548,9.638,9.638,0,0,0,8.735,0A2.955,2.955,0,0,0,412.874,297.108Z" transform="translate(-385.922 -243.696)" fill="#37474f"/>
        <ellipse id="Ellipse_564" data-name="Ellipse 564" cx="6.187" cy="3.579" rx="6.187" ry="3.579" transform="translate(14.578 48.863)" fill="#455a64"/>
        <path id="Path_5816" data-name="Path 5816" d="M408.1,248.8v29.3a.71.71,0,0,0,.485.667,2.443,2.443,0,0,0,2.244,0,.939.939,0,0,0,.485-.667V248.8Z" transform="translate(-388.912 -226.08)" fill="#37474f"/>
        <path id="Path_5817" data-name="Path 5817" d="M407.156,212.106a3.906,3.906,0,0,0-4-.364h0L383.5,223.085l9.826,19.774,19.714-11.4v-8.674C413.04,218.778,410.432,213.986,407.156,212.106Z" transform="translate(-379.234 -211.344)" fill="#455a64"/>
        <path id="Path_5818" data-name="Path 5818" d="M392.067,241.547v8.674L380.3,243.366v-8.674c0-4,2.669-5.762,5.884-3.882a12.381,12.381,0,0,1,4.974,6.248A11.64,11.64,0,0,1,392.067,241.547Z" transform="translate(-377.975 -218.706)" fill="#37474f"/>
        <path id="Path_5819" data-name="Path 5819" d="M392.067,246.089v8.674L380.3,247.908l10.918-6.308A12.8,12.8,0,0,1,392.067,246.089Z" transform="translate(-377.975 -223.248)" fill="#263238"/>
        <path id="Path_5820" data-name="Path 5820" d="M388.618,247.389c-1.092-3.154-4.61-7.218-7.885-9.1s-5.035-.849-3.943,2.3l1.941,5.7,11.828,6.854C390.559,253.091,389.71,250.543,388.618,247.389Z" transform="translate(-376.466 -221.576)" fill="#455a64"/>
        <path id="Path_5821" data-name="Path 5821" d="M408.043,249.309l-.667-.364h0a.972.972,0,0,0-.91.061,2.844,2.844,0,0,0-1.274,2.184.832.832,0,0,0,.364.789h0l.607.364.121-.182a.862.862,0,0,0,.364-.121,2.844,2.844,0,0,0,1.274-2.184.454.454,0,0,0-.061-.3Z" transform="translate(-387.763 -226.104)" fill="#263238"/>
        <path id="Path_5822" data-name="Path 5822" d="M407.574,249.576a2.844,2.844,0,0,0-1.274,2.184c0,.789.546,1.152,1.274.728a2.844,2.844,0,0,0,1.274-2.184C408.848,249.455,408.241,249.152,407.574,249.576Z" transform="translate(-388.204 -226.311)" fill="#37474f"/>
        <path id="Path_5823" data-name="Path 5823" d="M408.164,244.023a.391.391,0,0,1-.364-.364h0v-12.5a.364.364,0,0,1,.728,0h0v12.5A.35.35,0,0,1,408.164,244.023Z" transform="translate(-388.794 -218.999)" fill="#263238"/>
        <path id="Path_5824" data-name="Path 5824" d="M408.9,231.7v3.275l3.518-3.579Z" transform="translate(-389.227 -219.235)" fill="#37474f"/>
      </g>
      <g id="Group_9798" data-name="Group 9798" transform="translate(170.91 132.283)">
        <g id="Group_9797" data-name="Group 9797">
          <path id="Path_5825" data-name="Path 5825" d="M265.58,176.8a4.4,4.4,0,0,1-.849.364c-.243.061-.425.061-.546-.061a.748.748,0,0,1-.3-.485,3.67,3.67,0,0,1-.121-.91l-.061-1.88a5.552,5.552,0,0,1,.061-1.031A3,3,0,0,1,264,172a1.9,1.9,0,0,1,.546-.667,5.135,5.135,0,0,1,.849-.607l1.759-1.031a5.459,5.459,0,0,1,.849-.425c.243-.061.425-.061.546.061a.748.748,0,0,1,.3.485,3.671,3.671,0,0,1,.121.91l.061,1.88a5.549,5.549,0,0,1-.061,1.031,3,3,0,0,1-.243.789,1.9,1.9,0,0,1-.546.667,5.135,5.135,0,0,1-.849.607Zm2.366-5.4c0-.182,0-.364-.061-.425a.315.315,0,0,0-.121-.243c-.061-.061-.121-.061-.243,0s-.243.061-.364.182l-1.638.971a2.567,2.567,0,0,0-.425.3.605.605,0,0,0-.243.3.862.862,0,0,0-.121.364v.485l.061,1.759a1.182,1.182,0,0,0,.061.485.315.315,0,0,0,.121.243c.061.061.121.061.243,0l.364-.182,1.638-.971c.121-.061.243-.182.364-.243a.605.605,0,0,0,.243-.3.862.862,0,0,0,.121-.364V171.4Z" transform="translate(-263.7 -162.496)" fill="#fff"/>
          <path id="Path_5826" data-name="Path 5826" d="M275.162,170.825l-.121-4.913-1.941,1.152v-1.152L278.013,163v1.152l-1.941,1.152.121,4.913Z" transform="translate(-267.398 -160.043)" fill="#fff"/>
          <path id="Path_5827" data-name="Path 5827" d="M283.192,164.479v1.7l-1.031.607-.061-6.066,3.7-2.184a3.241,3.241,0,0,1,.849-.364.82.82,0,0,1,.546,0,.774.774,0,0,1,.3.425,3.47,3.47,0,0,1,.061.849v.546a4.9,4.9,0,0,1-.061.971,1.868,1.868,0,0,1-.3.728,1.721,1.721,0,0,1-.546.607c-.243.182-.485.364-.849.607Zm3.336-4.307q0-.455-.182-.546t-.546.182l-2.669,1.577v2.062l2.669-1.577c.243-.182.485-.3.546-.485a1.293,1.293,0,0,0,.182-.728Z" transform="translate(-270.939 -158.125)" fill="#fff"/>
        </g>
      </g>
    </g>
  </g>
</svg>
