<svg width="232" height="208" viewBox="0 0 232 208" fill="none" xmlns="http://www.w3.org/2000/svg">
<g id="Group 1037">
<g id="Group 1038">
<ellipse id="Ellipse 132" cx="117" cy="202" rx="59" ry="5.5" fill="#D1E1C3"/>
<g id="Group 1036">
<g id="Group 953">
<g id="Group 938">
<g id="Group 935">
<g id="Group 934">
<path id="Vector" d="M177.457 133.08C176.983 132.445 176.517 131.81 176.061 131.197C169.779 122.748 165.979 117.649 165.979 93.7316C165.979 81.349 163.316 71.189 158.065 63.5689C154.194 57.9396 148.96 53.6692 142.063 50.5132C141.974 50.4583 141.894 50.3863 141.828 50.3005C136.741 41.583 132.558 34.873 124.901 34.873C117.243 34.873 110.457 41.0612 107.976 50.291C107.91 50.3736 107.832 50.4433 107.745 50.4973C91.6479 57.8666 83.825 72.0049 83.825 93.7221C83.825 117.649 85.0069 122.741 78.7201 131.18C78.2632 131.793 77.616 132.506 77.1421 133.153C75.9178 134.795 75.008 136.727 74.7727 138.844C74.5375 140.961 75.1293 143.07 75.9572 144.994C77.7188 149.122 77.5922 148.941 81.8777 148.941L124.9 150.126H168.712C172.977 150.126 177.006 149.145 178.773 145.037C179.604 143.112 179.922 140.963 179.689 138.844C179.456 136.725 178.681 134.724 177.457 133.08Z" fill="#B5F383"/>
<path id="Vector_2" d="M166.569 131.501C166.139 130.866 165.717 130.231 165.303 129.618C159.61 121.17 156.165 116.07 156.165 92.153C156.165 79.7704 153.75 69.6103 148.991 61.9903C145.481 56.361 140.738 52.0906 134.485 48.9346C134.404 48.8797 134.333 48.8077 134.273 48.7219C132.024 39.4826 125.869 33.2944 118.928 33.2944C111.987 33.2944 105.835 39.4826 103.586 48.7123C103.526 48.795 103.455 48.8647 103.377 48.9187C88.7853 56.2879 80.6416 70.3876 80.6416 92.1048C80.6416 116.032 78.2546 121.17 72.5557 129.609C72.1416 130.222 71.7198 130.844 71.2902 131.492C70.1804 133.133 69.4773 135.131 69.264 137.248C69.0508 139.365 69.3363 141.512 70.0867 143.436C71.6836 147.563 75.0868 150.126 78.9715 150.126H118.942H158.913C162.78 150.126 166.16 147.567 167.762 143.458C168.516 141.534 168.804 139.385 168.592 137.265C168.381 135.146 167.679 133.146 166.569 131.501Z" fill="url(#paint0_linear_131_394)"/>
<path id="Vector_3" d="M168.576 152.336C173.506 152.336 177.815 149.677 179.857 145.407C180.818 143.407 181.186 141.174 180.916 138.972C180.646 136.769 179.751 134.691 178.336 132.981C177.788 132.322 177.251 131.662 176.723 131.025C169.464 122.245 165.072 116.946 165.072 92.0914C165.072 79.2236 161.994 68.6654 155.926 60.7467C151.452 54.8968 145.404 50.459 137.433 47.1794C137.33 47.1223 137.239 47.0474 137.162 46.9583C134.295 37.3569 126.449 30.9263 117.6 30.9263C108.751 30.9263 100.908 37.3569 98.0408 46.9484C97.9643 47.0343 97.874 47.1067 97.7736 47.1629C79.1713 54.8209 70.1308 69.5133 70.1308 92.0815C70.1308 116.946 65.7458 122.245 58.4804 131.015C57.9525 131.652 57.4147 132.299 56.867 132.972C55.4522 134.678 54.5558 136.754 54.2839 138.953C54.012 141.153 54.376 143.385 55.3328 145.384C57.3685 149.673 61.7073 152.336 66.6598 152.336H117.618H143.097" stroke="#55B547" stroke-width="5" stroke-linecap="round"/>
</g>
</g>
<path id="Vector 145" d="M100.77 160.388C106.69 171.571 122.083 187.228 136.293 160.388H100.77Z" fill="#E0FFC5"/>
<path id="Vector 144" d="M100.77 160.388C106.69 171.571 122.083 187.228 136.293 160.388" stroke="#55B547" stroke-width="5" stroke-linecap="round"/>
<path id="Vector 146" d="M94.7773 104.34C96.8824 96.5319 104.513 93.3373 108.197 104.34" stroke="#55B547" stroke-width="5" stroke-linecap="round"/>
<path id="Vector 147" d="M127.934 104.34C130.039 96.5319 137.67 93.3373 141.353 104.34" stroke="#55B547" stroke-width="5" stroke-linecap="round"/>
<ellipse id="Ellipse 133" cx="117.425" cy="120.779" rx="6.18033" ry="4.27869" fill="#55B547"/>
</g>
<g id="Group 937">
<circle id="Ellipse 134" cx="4.7541" cy="131.713" r="4.7541" fill="#E0FFC5"/>
<circle id="Ellipse 135" cx="217.738" cy="46.1394" r="4.7541" fill="#B5F383"/>
<circle id="Ellipse 139" cx="20.9182" cy="88.926" r="4.7541" fill="#B5F383"/>
<g id="Group 936">
<circle id="Ellipse 139_2" cx="42.7865" cy="10.0082" r="9.5082" fill="#B5F383"/>
<circle id="Ellipse 140" cx="42.7866" cy="10.0083" r="6.65574" fill="white"/>
</g>
<circle id="Ellipse 137" cx="30.426" cy="46.1394" r="4.2541" stroke="#B5F383" stroke-dasharray="2 2"/>
<circle id="Ellipse 140_2" cx="209.18" cy="93.6804" r="4.2541" stroke="#B5F383" stroke-dasharray="2 2"/>
<circle id="Ellipse 138" cx="178.754" cy="17.6146" r="9.0082" stroke="#B5F383" stroke-dasharray="2 2"/>
<circle id="Ellipse 136" cx="227.246" cy="131.713" r="4.7541" fill="#E0FFC5"/>
</g>
</g>
</g>
</g>
</g>
<defs>
<linearGradient id="paint0_linear_131_394" x1="118.928" y1="33.2944" x2="118.928" y2="150.126" gradientUnits="userSpaceOnUse">
<stop stop-color="#E0FFC5"/>
<stop offset="1" stop-color="white" stop-opacity="0"/>
</linearGradient>
</defs>
</svg>
