<?xml version="1.0" standalone="no"?>
<!DOCTYPE svg PUBLIC "-//W3C//DTD SVG 20010904//EN"
 "http://www.w3.org/TR/2001/REC-SVG-20010904/DTD/svg10.dtd">
<svg version="1.0" xmlns="http://www.w3.org/2000/svg"
 width="391.000000pt" height="480.000000pt" viewBox="0 0 391.000000 480.000000"
 preserveAspectRatio="xMidYMid meet">

<g transform="translate(0.000000,480.000000) scale(0.100000,-0.100000)"
fill="#000000" stroke="none">
<path d="M2790 4784 c-469 -100 -850 -546 -850 -994 l0 -89 36 -7 c49 -9 174
13 271 48 350 127 614 471 663 865 6 48 8 110 4 140 -7 61 -10 62 -124 37z"/>
<path d="M2665 3624 c-109 -20 -193 -46 -372 -115 -303 -117 -311 -117 -631 6
-234 89 -317 109 -467 108 -437 0 -840 -267 -1041 -690 -249 -525 -188 -1297
157 -1992 181 -366 507 -776 695 -874 182 -94 318 -89 596 23 203 82 292 103
443 103 148 -1 232 -18 378 -79 199 -82 251 -96 373 -102 166 -7 269 29 415
146 141 112 364 405 502 658 83 154 207 447 194 460 -2 2 -30 18 -63 35 -145
78 -302 212 -390 335 -58 81 -127 229 -154 329 -33 121 -39 357 -12 485 41
200 126 360 269 511 48 49 117 113 155 141 37 28 68 54 68 58 0 8 -58 78 -114
139 -59 63 -188 157 -279 202 -219 111 -496 154 -722 113z"/>
</g>
</svg>
