<svg xmlns="http://www.w3.org/2000/svg" xmlns:xlink="http://www.w3.org/1999/xlink" width="28.369" height="29.397" viewBox="0 0 28.369 29.397">
  <defs>
    <linearGradient id="linear-gradient" x1="0.5" x2="0.5" y2="1" gradientUnits="objectBoundingBox">
      <stop offset="0" stop-color="#89ba2a"/>
      <stop offset="1" stop-color="#3d9b35"/>
    </linearGradient>
  </defs>
  <g id="clock-timer" transform="translate(0 -0.01)">
    <g id="Group_9793" data-name="Group 9793" transform="translate(12.088 12.02)">
      <path id="Path_5714" data-name="Path 5714" d="M11,13.389a2.312,2.312,0,0,0,2.221,2.394A2.316,2.316,0,0,0,15.451,13.4,2.31,2.31,0,0,0,13.23,11,2.307,2.307,0,0,0,11,13.389Z" transform="translate(-11.002 -11.002)" fill="url(#linear-gradient)"/>
    </g>
    <path id="Union_1" data-name="Union 1" d="M20424.846,20483.324a2.952,2.952,0,0,1,.035-.459c-2.193-2.789-7.961-10.18-7.686-10.451s8.092,5.873,10.658,7.908a3,3,0,1,1-3.008,3Z" transform="translate(-20413.662 -20468.916)" fill="url(#linear-gradient)"/>
    <circle id="Ellipse_562" data-name="Ellipse 562" cx="2" cy="2" r="2" transform="translate(11.853 0.01)" fill="url(#linear-gradient)"/>
    <path id="Path_5716" data-name="Path 5716" d="M18.863,1.871a1.64,1.64,0,0,0,.789,2.316,11.933,11.933,0,0,1,5.95,10.4A11.666,11.666,0,0,1,14.186,26.465,11.668,11.668,0,0,1,2.767,14.588a12.159,12.159,0,0,1,.771-4.268,1.542,1.542,0,0,0-.53-2.108,1.27,1.27,0,0,0-1.813.459A15.144,15.144,0,0,0,0,14.588c0,8.15,6.35,14.757,14.185,14.757s14.185-6.607,14.185-14.757a14.8,14.8,0,0,0-7.914-13.22A1.232,1.232,0,0,0,18.863,1.871Z" transform="translate(0 0.062)" fill="url(#linear-gradient)"/>
  </g>
</svg>
