<svg id="receipt" xmlns="http://www.w3.org/2000/svg" xmlns:xlink="http://www.w3.org/1999/xlink" width="25" height="31.25" viewBox="0 0 25 31.25">
  <defs>
    <linearGradient id="linear-gradient" x1="0.5" x2="0.5" y2="1" gradientUnits="objectBoundingBox">
      <stop offset="0" stop-color="#8abb2a"/>
      <stop offset="1" stop-color="#3c9b36"/>
    </linearGradient>
  </defs>
  <path id="Icon_color" data-name="Icon color" d="M4.416,31.25H3.943a.743.743,0,0,1-.537-.233L.453,28.079A1.636,1.636,0,0,1,0,26.969V1.562A1.564,1.564,0,0,1,1.562,0H23.438A1.564,1.564,0,0,1,25,1.562V27.031a1.554,1.554,0,0,1-.453,1.094l-2.985,2.828a.734.734,0,0,1-.537.235h-.473a.739.739,0,0,1-.537-.235l-2.828-2.828a.8.8,0,0,0-1.062,0L13.3,30.953a.739.739,0,0,1-.537.235h-.474a.733.733,0,0,1-.536-.235L8.921,28.125a.8.8,0,0,0-1.108,0l-2.86,2.891A.738.738,0,0,1,4.416,31.25ZM7.031,15.625a.783.783,0,0,0-.782.782v1.562a.782.782,0,0,0,.782.78H13.28a.782.782,0,0,0,.782-.78V16.407a.783.783,0,0,0-.782-.782Zm0-6.249a.782.782,0,0,0-.782.78v1.562a.783.783,0,0,0,.782.782H17.969a.782.782,0,0,0,.78-.782V10.156a.781.781,0,0,0-.78-.78Z" transform="translate(0 0)" fill="url(#linear-gradient)"/>
</svg>
