<svg xmlns="http://www.w3.org/2000/svg" width="30" height="29.209" viewBox="0 0 30 29.209">
  <g id="Group_3811" data-name="Group 3811" transform="translate(-156.398 -122.206)">
    <path id="Path_3035" data-name="Path 3035" d="M178.674,144.228l1.052,6.452a.617.617,0,0,1-.927.64l-8.122-5.11-8.123,5.11a.617.617,0,0,1-.927-.64l1.628-9.994-6.668-6.566a.633.633,0,0,1,.342-1.077l9.162-1.3,4.026-9.172a.608.608,0,0,1,1.12,0l3.249,7.4a8.393,8.393,0,0,0-2.559,6.055A8.265,8.265,0,0,0,178.674,144.228Z" transform="translate(0)" fill="#002b7f"/>
    <path id="Path_3036" data-name="Path 3036" d="M423.555,236.052a6.306,6.306,0,1,0,6.306,6.306A6.308,6.308,0,0,0,423.555,236.052Zm2.8,7.007h-2.1v2.1a.7.7,0,0,1-.7.7h0a.7.7,0,0,1-.7-.7v-2.1h-2.1a.7.7,0,0,1-.7-.7h0a.7.7,0,0,1,.7-.7h2.1v-2.1a.7.7,0,0,1,.7-.7h0a.7.7,0,0,1,.7.7v2.1h2.1a.7.7,0,0,1,.7.7h0A.7.7,0,0,1,426.358,243.059Z" transform="translate(-243.464 -106.279)" fill="#3c9b36"/>
  </g>
</svg>
