<svg xmlns="http://www.w3.org/2000/svg" xmlns:xlink="http://www.w3.org/1999/xlink" width="20.687" height="18.469" viewBox="0 0 20.687 18.469">
  <defs>
    <linearGradient id="linear-gradient" x1="0.5" x2="0.5" y2="1" gradientUnits="objectBoundingBox">
      <stop offset="0" stop-color="#82b62a"/>
      <stop offset="1" stop-color="#4ca131"/>
    </linearGradient>
    <linearGradient id="linear-gradient-2" x1="0.5" x2="0.5" y2="1" gradientUnits="objectBoundingBox">
      <stop offset="0" stop-color="#82b62a"/>
      <stop offset="1" stop-color="#4ba131"/>
    </linearGradient>
  </defs>
  <g id="Group_9954" data-name="Group 9954" transform="translate(-193.156 -185.531)">
    <path id="Path_7708" data-name="Path 7708" d="M171.288,708.612c-.4.005-.791,0-1.187,0-.885,0-1.77-.005-2.655,0a.718.718,0,0,1-.765-.706c0-.094,0-.187,0-.281,0-.791,0-1.582.014-2.372a.625.625,0,0,1,.6-.606c.442-.016.884-.013,1.326-.014q1.327,0,2.655,0c.078,0,.149.018.148-.111-.007-1.093,0-2.186-.012-3.279a1.179,1.179,0,0,0-1.121-1.123c-.348-.013-.7-.006-1.046-.007-.071,0-.124,0-.143-.1-.1-.527-.208-1.052-.311-1.579a1.7,1.7,0,0,0-.4-.939,1.469,1.469,0,0,0-1.489-.377c-1.661.4-3.326.791-4.99,1.185q-1.631.386-3.263.773c-1.084.255-2.17.5-3.251.763a7.908,7.908,0,0,0-1.259.345,1.28,1.28,0,0,0-.779,1.2q0,3.334,0,6.668c0,.016,0,.031,0,.047-.006.076,0,.1.1.086a4.543,4.543,0,0,1,.759-.076,5.371,5.371,0,0,1,2.837.73,5.278,5.278,0,0,1,1.938,1.969,5.219,5.219,0,0,1,.666,2.187c.011.131.058.143.166.143q2.717,0,5.435,0h5.4a.7.7,0,0,0,.768-.73c0-1.223,0-2.446,0-3.67C171.431,708.629,171.39,708.611,171.288,708.612Zm-13.746-8.5-.005-.028c.248-.06.5-.123.743-.181l3.233-.757,4.4-1.032c.411-.1.821-.192,1.23-.3a.68.68,0,0,1,.881.525c.1.557.218,1.112.336,1.667.02.093,0,.111-.084.1a.46.46,0,0,0-.047,0Z" transform="translate(42.412 -511.537)" fill="url(#linear-gradient)"/>
    <g id="Group_9931" data-name="Group 9931" transform="translate(193.156 194.57)">
      <circle id="Ellipse_620" data-name="Ellipse 620" cx="4.715" cy="4.715" r="4.715" fill="#fff"/>
      <path id="Path_7709" data-name="Path 7709" d="M122.928,819.523a4.2,4.2,0,1,0-4.186,4.367A4.2,4.2,0,0,0,122.928,819.523Zm-1.532.349c.008.1-.029.119-.122.118-.7,0-1.406,0-2.109-.005-.116,0-.141.03-.14.143.006.7,0,1.406.005,2.109,0,.1-.018.138-.125.13a2.788,2.788,0,0,0-.383,0c-.087,0-.107-.029-.106-.11,0-.361,0-.721,0-1.082s0-.712,0-1.068c0-.1-.025-.12-.121-.12-.7,0-1.406,0-2.109.006-.118,0-.147-.033-.138-.143a2.287,2.287,0,0,0,0-.356c-.006-.091.025-.112.113-.112.708,0,1.415,0,2.123,0,.11,0,.132-.031.132-.135,0-.7,0-1.4-.005-2.1,0-.109.029-.141.136-.133a2.506,2.506,0,0,0,.37,0c.094-.007.111.03.11.115,0,.7,0,1.406,0,2.109,0,.118.034.14.144.139.7-.005,1.4,0,2.1-.006.111,0,.14.031.132.136A2.332,2.332,0,0,0,121.4,819.872Z" transform="translate(-114.025 -814.965)" fill="#61a92e"/>
    </g>
    <path id="Path_7710" data-name="Path 7710" d="M300.794,781a.685.685,0,0,0-.692-.724c-.915-.008-1.83,0-2.746,0a.712.712,0,0,0-.708.772c.017.483,0,.967,0,1.451a.7.7,0,0,0,.766.757h1.311c.458,0,.915,0,1.373,0a.671.671,0,0,0,.679-.633C300.82,782.079,300.8,781.538,300.794,781Zm-2.629,1.318a.56.56,0,1,1,.558-.565A.565.565,0,0,1,298.164,782.316Z" transform="translate(-86.961 -586.699)" fill="url(#linear-gradient-2)"/>
  </g>
</svg>
