<svg xmlns="http://www.w3.org/2000/svg" xmlns:xlink="http://www.w3.org/1999/xlink" width="20.647" height="20.647" viewBox="0 0 20.647 20.647">
  <defs>
    <linearGradient id="linear-gradient" x1="0.045" y1="-0.007" x2="0.914" y2="1.014" gradientUnits="objectBoundingBox">
      <stop offset="0" stop-color="#84b82a"/>
      <stop offset="1" stop-color="#3f9c35"/>
    </linearGradient>
  </defs>
  <path id="send-message" d="M10.555,14.692a.582.582,0,0,1,.823,0L12.9,16.217a.582.582,0,1,1-.823.823l-1.525-1.525a.582.582,0,0,1,0-.823Zm4.137-4.137a.582.582,0,0,1,.823,0l1.525,1.525a.582.582,0,1,1-.823.823l-1.525-1.525A.582.582,0,0,1,14.693,10.555Zm-2.758,1.379a.582.582,0,0,1,.823,0L16.623,15.8a.582.582,0,1,1-.823.823l-3.865-3.865A.582.582,0,0,1,11.934,11.934ZM.03.764,5.546,17.645a.583.583,0,0,0,1.057.112l3.71-6.38a.582.582,0,0,0-.036-.64L8.945,8.944l1.793,1.332a.582.582,0,0,0,.64.036l6.38-3.71a.583.583,0,0,0-.112-1.057L.764.03A.583.583,0,0,0,.03.764Z" transform="translate(20.647 2.823) rotate(99)" fill="url(#linear-gradient)"/>
</svg>
