<?xml version="1.0" standalone="no"?>
<!DOCTYPE svg PUBLIC "-//W3C//DTD SVG 20010904//EN"
 "http://www.w3.org/TR/2001/REC-SVG-20010904/DTD/svg10.dtd">
<svg version="1.0" xmlns="http://www.w3.org/2000/svg"
 width="24.000000pt" height="24.000000pt" viewBox="0 0 24.000000 24.000000"
 preserveAspectRatio="xMidYMid meet">

<g transform="translate(0.000000,24.000000) scale(0.100000,-0.100000)"
fill="#6804d4" stroke="none">
<path d="M75 231 c-45 -20 -70 -60 -70 -112 0 -42 5 -53 33 -81 28 -28 39 -33
82 -33 43 0 54 5 82 33 28 28 33 39 33 82 0 42 -5 54 -31 81 -33 33 -92 46
-129 30z m23 -68 c-3 -15 14 -43 23 -37 5 3 7 10 4 15 -4 5 7 9 23 9 33 0 43
-15 31 -45 -7 -17 -8 -16 -8 8 -1 31 -7 33 -33 10 -21 -19 -23 -39 -5 -46 6
-3 -4 -5 -23 -5 -19 0 -29 2 -22 5 20 8 14 35 -15 65 l-27 28 27 0 c15 0 26
-3 25 -7z"/>
</g>
</svg>
